<svg id="visual" viewBox="0 0 600 900" width="600" height="900" xmlns="http://www.w3.org/2000/svg" xmlns:xlink="http://www.w3.org/1999/xlink" version="1.1"><rect x="0" y="0" width="600" height="900" fill="#09988a"></rect><path d="M0 320L12.5 300C25 280 50 240 75 223.3C100 206.7 125 213.3 150 238.7C175 264 200 308 225 309.2C250 310.3 275 268.7 300 271.5C325 274.3 350 321.7 375 317.3C400 313 425 257 450 240.2C475 223.3 500 245.7 525 258C550 270.3 575 272.7 587.5 273.8L600 275L600 901L587.5 901C575 901 550 901 525 901C500 901 475 901 450 901C425 901 400 901 375 901C350 901 325 901 300 901C275 901 250 901 225 901C200 901 175 901 150 901C125 901 100 901 75 901C50 901 25 901 12.5 901L0 901Z" fill="#009688"></path><path d="M0 369L12.5 372C25 375 50 381 75 375.5C100 370 125 353 150 356.5C175 360 200 384 225 384.5C250 385 275 362 300 355.2C325 348.3 350 357.7 375 369.5C400 381.3 425 395.7 450 407.2C475 418.7 500 427.3 525 416.7C550 406 575 376 587.5 361L600 346L600 901L587.5 901C575 901 550 901 525 901C500 901 475 901 450 901C425 901 400 901 375 901C350 901 325 901 300 901C275 901 250 901 225 901C200 901 175 901 150 901C125 901 100 901 75 901C50 901 25 901 12.5 901L0 901Z" fill="#47a89e"></path><path d="M0 611L12.5 584C25 557 50 503 75 503.3C100 503.7 125 558.3 150 565.3C175 572.3 200 531.7 225 510.7C250 489.7 275 488.3 300 480.7C325 473 350 459 375 451.3C400 443.7 425 442.3 450 464.5C475 486.7 500 532.3 525 546.8C550 561.3 575 544.7 587.5 536.3L600 528L600 901L587.5 901C575 901 550 901 525 901C500 901 475 901 450 901C425 901 400 901 375 901C350 901 325 901 300 901C275 901 250 901 225 901C200 901 175 901 150 901C125 901 100 901 75 901C50 901 25 901 12.5 901L0 901Z" fill="#6fbbb3"></path><path d="M0 626L12.5 625C25 624 50 622 75 621.2C100 620.3 125 620.7 150 611.2C175 601.7 200 582.3 225 575.7C250 569 275 575 300 589.3C325 603.7 350 626.3 375 626.3C400 626.3 425 603.7 450 592.2C475 580.7 500 580.3 525 595.8C550 611.3 575 642.7 587.5 658.3L600 674L600 901L587.5 901C575 901 550 901 525 901C500 901 475 901 450 901C425 901 400 901 375 901C350 901 325 901 300 901C275 901 250 901 225 901C200 901 175 901 150 901C125 901 100 901 75 901C50 901 25 901 12.5 901L0 901Z" fill="#93cec8"></path><path d="M0 796L12.5 785.7C25 775.3 50 754.7 75 743.8C100 733 125 732 150 732.3C175 732.7 200 734.3 225 747.2C250 760 275 784 300 794.7C325 805.3 350 802.7 375 784.8C400 767 425 734 450 715.8C475 697.7 500 694.3 525 706.7C550 719 575 747 587.5 761L600 775L600 901L587.5 901C575 901 550 901 525 901C500 901 475 901 450 901C425 901 400 901 375 901C350 901 325 901 300 901C275 901 250 901 225 901C200 901 175 901 150 901C125 901 100 901 75 901C50 901 25 901 12.5 901L0 901Z" fill="#b6e1dd"></path></svg>