<svg xmlns="http://www.w3.org/2000/svg" version="1.1" xmlns:xlink="http://www.w3.org/1999/xlink" width="512" height="512" x="0" y="0" viewBox="0 0 64 64" style="enable-background:new 0 0 512 512" xml:space="preserve" class=""><g><path d="m56.78 30.38-4-5c-.11-.13-.25-.24-.41-.3l-14.61-5.84c.53-.15.84-.69.7-1.21-.14-.53-.69-.85-1.22-.71-.37.1-.74.22-1.1.37-.3.12-.49.39-.57.68l-3.19-1.28a.95.95 0 0 0-.74 0l-20 8c-.16.06-.3.17-.41.3l-4 5c-.2.25-.27.57-.19.88s.3.56.6.67l3.37 1.35v18.72a1 1 0 0 0 .63.93l20 8h.04c.11.04.22.06.34.06s.23-.03.34-.06h.04l20-8a1 1 0 0 0 .63-.93V33.29l3.37-1.35c.29-.12.52-.37.6-.67.08-.31.01-.63-.19-.88zM32 19.08 49.31 26 32 32.92 14.69 26zm-19.68 8.13 18.06 7.22-2.69 3.37-18.06-7.22zm.68 6.87 14.63 5.85c.41.16.88.04 1.15-.3L31 36.86v21.67l-18-7.2zm38 17.25-18 7.2V36.86l2.22 2.77a1 1 0 0 0 1.15.31L51 34.09v17.25zM36.32 37.8l-2.69-3.37 18.06-7.22 2.69 3.37zM18.35 12.92l2.46 2.84c.7.81 1.63 1.24 2.59 1.24.38 0 .77-.07 1.15-.21 1.49-.56 2.46-2.05 2.46-3.8v-.77c.61-.55 1-1.34 1-2.22s-.39-1.67-1-2.22v-.77c0-1.75-.96-3.25-2.46-3.8-1.33-.5-2.76-.1-3.74 1.03l-2.46 2.84A3 3 0 0 0 16 10a3 3 0 0 0 2.35 2.92zM26 10c0 .55-.45 1-1 1h-6c-.55 0-1-.45-1-1s.45-1 1-1h6c.55 0 1 .45 1 1zm-2.16 4.92c-.32.12-.94.22-1.53-.46L21.05 13h3.94c0 1.1-.62 1.72-1.16 1.92zm-1.53-9.37c.58-.68 1.21-.58 1.53-.46.53.2 1.15.82 1.16 1.92h-3.94l1.26-1.46zm8.56 4.46c0-.55.45-1 1-1h.5c.55 0 1 .45 1 1s-.45 1-1 1h-.5c-.55 0-1-.45-1-1zm9.73 8.12c-.08-.55.29-1.05.84-1.14.25-.04.5-.11.74-.21.51-.22 1.1.01 1.32.52s-.01 1.1-.52 1.32c-.4.17-.81.29-1.24.36-.05 0-.1.01-.15.01-.49 0-.91-.36-.99-.85zm.06-8.23c.09-.55.6-.92 1.15-.82.43.07.84.19 1.23.37a1 1 0 0 1-.82 1.82c-.23-.1-.48-.18-.74-.22a.999.999 0 0 1-.82-1.15zm3.31 4.53c.02-.13.03-.27.03-.41 0-.12 0-.25-.02-.36a.987.987 0 0 1 .87-1.11.975.975 0 0 1 1.11.87c.02.2.04.4.04.61 0 .23-.02.45-.04.67-.07.5-.5.87-.99.87h-.13a.995.995 0 0 1-.86-1.12zm-12.08 7.09c.18-.34.39-.67.62-.99.33-.45.95-.54 1.4-.22.45.33.54.95.22 1.4-.17.24-.33.49-.47.75-.18.34-.53.53-.88.53-.16 0-.32-.04-.47-.12a.996.996 0 0 1-.41-1.35zm3.61-11.51c0-.55.45-1 1-1h1.03c.55 0 1 .45 1 1s-.45 1-1 1H36.5c-.55 0-1-.45-1-1zm-4.62 16.5v-.5c0-.55.45-1 1-1s1 .45 1 1v.5c0 .55-.45 1-1 1s-1-.45-1-1z" fill="#5d7285" opacity="1" data-original="#000000" class=""></path></g></svg>
