<svg width="393" height="268" viewBox="0 0 393 268" fill="none" xmlns="http://www.w3.org/2000/svg">
<path fill-rule="evenodd" clip-rule="evenodd" d="M27.7025 267.233L36.9501 174.131H0.311523L21.1187 72.5691H101.647L62.76 141.543H95.2537L27.7025 267.233Z" fill="black"/>
<path d="M343.627 61.123L356.202 2.22046H372.747L360.173 61.123H343.627Z" fill="black"/>
<path d="M325.364 2.22046C340.917 2.22046 349.107 10.3278 345.881 24.7225C343.564 35.1463 333.802 43.2537 319.987 43.2537H308.074L304.268 61.123H287.723L300.215 2.22046H325.364ZM329.583 23.3162C330.576 18.2697 328.094 16.1188 323.709 16.1188H313.782L310.969 29.3553H320.897C325.281 29.3553 328.839 27.2044 329.583 23.3162Z" fill="black"/>
<path d="M267.27 61.123L266.442 53.4292H243.361L239.308 61.123H221.935L255.357 2.22046H275.212L284.394 61.123H267.27ZM250.641 39.7791H264.871L263.381 26.2116C263.051 23.2334 262.802 20.0898 262.554 16.9461C260.982 20.0898 259.41 23.2334 257.839 26.2116L250.641 39.7791Z" fill="black"/>
<path d="M242.282 2.22046L239.138 16.9461H221.765L212.334 61.123H195.789L205.22 16.9461H187.847L190.99 2.22046H242.282Z" fill="black"/>
<path d="M153.467 62.4465C134.274 62.4465 127.077 53.8428 129.807 41.7645H145.773C144.45 48.7137 148.752 49.8719 155.122 49.8719C160.747 49.8719 163.808 47.8864 164.387 45.2391C165.297 41.1854 163.394 40.0272 156.445 38.869L151.978 38.1244C139.486 36.0562 133.447 29.1071 135.763 17.7733C137.583 8.92137 146.435 0.896729 161.988 0.896729C178.782 0.896729 187.055 7.43226 184.738 20.3379H169.103C169.847 15.7051 167.614 13.4714 161.161 13.4714C155.949 13.4714 153.219 15.2914 152.64 18.2697C151.895 21.9097 154.377 23.1506 160.003 24.1434L164.718 24.9706C177.872 27.287 184.077 33.1607 181.595 44.9909C179.196 56.4901 168.027 62.4465 153.467 62.4465Z" fill="black"/>
<path d="M109.892 61.123L109.064 53.4292H85.9833L81.9296 61.123H64.5566L97.9789 2.22046H117.834L127.016 61.123H109.892ZM93.2633 39.7791H107.493L106.003 26.2116C105.673 23.2334 105.424 20.0898 105.176 16.9461C103.604 20.0898 102.033 23.2334 100.461 26.2116L93.2633 39.7791Z" fill="black"/>
<path d="M77.6477 16.9461H49.3546L47.7 24.6398H74.1731L71.1949 38.5382H44.7218L39.9236 61.123H23.3779L35.9526 2.22046H80.7913L77.6477 16.9461Z" fill="black"/>
<path d="M366.906 72.7024C386.596 72.7024 395.696 85.9389 391.807 104.387C388.25 121.181 378.902 131.605 356.483 131.605H329.927L342.419 72.7024H366.906ZM375.262 102.898C377.661 91.399 372.78 86.6007 364.921 86.6007H355.986L349.451 117.707H358.303C366.162 117.707 372.863 114.397 375.262 102.898Z" fill="black"/>
<path d="M297.52 132.929C281.471 132.929 271.047 123.994 275.018 105.38L282.05 72.7024H298.596L291.233 107.448C289.578 115.307 293.218 118.782 299.257 118.782C305.048 118.782 309.598 115.473 311.005 108.524L318.45 72.7024H334.996L327.054 110.757C324.076 124.987 313.321 132.929 297.52 132.929Z" fill="black"/>
<path d="M235.136 132.928C216.853 132.928 204.858 120.933 209.325 99.589C212.717 83.3743 226.781 71.3787 244.733 71.3787C262.85 71.3787 274.929 83.3743 270.378 104.635C266.904 120.933 252.84 132.928 235.136 132.928ZM236.791 118.616C244.815 118.616 251.351 112.66 253.419 102.981C255.818 91.7298 251.516 85.6907 242.83 85.6907C234.805 85.6907 228.353 91.7298 226.119 101.74C223.72 112.66 228.104 118.616 236.791 118.616Z" fill="black"/>
<path d="M180.522 116.879H206.582L203.438 131.605H160.833L173.408 72.7024H189.953L180.522 116.879Z" fill="black"/>
<path d="M126.842 132.928C107.98 132.928 98.2176 121.016 102.685 99.9199C106.242 83.2915 119.231 71.3787 137.679 71.3787C152.57 71.3787 163.325 79.7342 162.828 94.6253H146.2C145.869 88.7516 142.064 85.5252 136.024 85.5252C127.917 85.5252 121.795 91.8125 119.727 101.409C117.328 112.577 120.306 118.782 128.993 118.782C135.363 118.782 140.988 115.142 143.635 108.524H160.181C155.383 124.325 143.966 132.928 126.842 132.928Z" fill="black"/>
</svg>
