<?xml version="1.0" encoding="UTF-8" standalone="no"?>
<svg
   width="468.31107mm"
   height="169.80992mm"
   viewBox="0 0 468.31106 169.80991"
   version="1.1"
   id="svg8"
   sodipodi:docname="logo-mosaic.svg"
   inkscape:version="1.3.2 (091e20e, 2023-11-25)"
   xml:space="preserve"
   xmlns:inkscape="http://www.inkscape.org/namespaces/inkscape"
   xmlns:sodipodi="http://sodipodi.sourceforge.net/DTD/sodipodi-0.dtd"
   xmlns="http://www.w3.org/2000/svg"
   xmlns:svg="http://www.w3.org/2000/svg"
   xmlns:rdf="http://www.w3.org/1999/02/22-rdf-syntax-ns#"
   xmlns:cc="http://creativecommons.org/ns#"
   xmlns:dc="http://purl.org/dc/elements/1.1/"><sodipodi:namedview
     pagecolor="#ffffff"
     bordercolor="#666666"
     borderopacity="1"
     objecttolerance="10"
     gridtolerance="10"
     guidetolerance="10"
     inkscape:pageopacity="0"
     inkscape:pageshadow="2"
     inkscape:window-width="1658"
     inkscape:window-height="1016"
     id="namedview10"
     showgrid="false"
     inkscape:zoom="0.16985349"
     inkscape:cx="1474.8004"
     inkscape:cy="447.44444"
     inkscape:window-x="70"
     inkscape:window-y="27"
     inkscape:window-maximized="1"
     inkscape:current-layer="svg8"
     inkscape:showpageshadow="2"
     inkscape:pagecheckerboard="0"
     inkscape:deskcolor="#d1d1d1"
     inkscape:document-units="mm" /><defs
     id="defs2"><linearGradient
       id="SvgjsLinearGradient1013"><stop
         id="SvgjsStop1014"
         stop-color="#2d388a"
         offset="0" /><stop
         id="SvgjsStop1015"
         stop-color="#00aeef"
         offset="1" /></linearGradient></defs><metadata
     id="metadata5"><rdf:RDF><cc:Work
         rdf:about=""><dc:format>image/svg+xml</dc:format><dc:type
           rdf:resource="http://purl.org/dc/dcmitype/StillImage" /></cc:Work></rdf:RDF></metadata><g
     id="g1"
     transform="translate(661.80717,152.31295)"
     style="fill:#5d7285;fill-opacity:1"><text
       id="text979-3-0"
       y="59.410606"
       x="212.35765"
       style="font-style:normal;font-variant:normal;font-weight:normal;font-stretch:normal;font-size:79.7151px;line-height:1;font-family:Ubuntu;-inkscape-font-specification:Ubuntu;text-align:center;letter-spacing:0px;word-spacing:0px;text-anchor:middle;white-space:pre;inline-size:336.465;display:inline;fill:#5d7285;fill-opacity:1;stroke:none;stroke-width:1.99288"
       xml:space="preserve"
       transform="translate(-539.29631,-155.92298)"><tspan
         x="212.35765"
         y="59.410606"
         id="tspan6"><tspan
           style="font-weight:500;-inkscape-font-specification:'Ubuntu Medium'"
           id="tspan1">FastAPI
</tspan></tspan></text><text
       id="text979-3-3-2"
       y="59.410606"
       x="212.35765"
       style="font-style:normal;font-variant:normal;font-weight:normal;font-stretch:normal;font-size:79.7151px;line-height:1;font-family:Ubuntu;-inkscape-font-specification:Ubuntu;text-align:center;letter-spacing:0px;word-spacing:0px;text-anchor:middle;white-space:pre;inline-size:336.465;display:inline;fill:#5d7285;fill-opacity:1;stroke:none;stroke-width:1.99288"
       xml:space="preserve"
       transform="matrix(1.2986806,0,0,1.2986806,-601.68816,-73.342887)"><tspan
         x="212.35765"
         y="59.410606"
         id="tspan8"><tspan
           style="font-weight:500;-inkscape-font-specification:'Ubuntu Medium'"
           id="tspan7">Cloud</tspan></tspan></text></g><g
     id="g7"
     style="fill:#5d7285;fill-opacity:1"
     transform="translate(-129.23605,254.24058)"><path
       id="path1-7-9-8-9"
       style="fill:#5d7285;fill-opacity:1;stroke-width:2.37993"
       d="m 223.71914,-254.24057 c -13.56554,0 -26.41707,5.23587 -36.41272,14.75555 -7.85375,7.37776 -12.85183,16.89756 -14.99375,27.36921 -3.33189,-1.18996 -6.90163,-1.9037 -10.70949,-1.9037 -17.8494,0 -32.36713,14.51726 -32.36713,32.36666 0,17.84941 14.51773,32.36714 32.36713,32.36714 h 28.73366 l 5.03667,-11.18589 h -33.77033 c -11.66161,0 -21.18125,-9.51963 -21.18125,-21.18125 0,-11.66161 9.51964,-21.18125 21.18125,-21.18125 4.28385,0 8.56784,1.18997 12.13773,3.80787 1.66595,1.18997 3.80764,1.42789 5.71158,0.47594 1.90392,-0.95197 3.09421,-2.6178 3.09421,-4.75973 0.47599,-10.70965 4.99791,-20.70558 12.61365,-28.08333 7.61576,-7.37775 17.84914,-11.42361 28.55879,-11.42361 15.23151,0 29.03498,8.3301 36.41273,21.65764 1.18996,2.14193 3.57012,3.33153 5.71204,2.85554 1.66594,-0.23798 3.09378,-0.47592 4.75972,-0.47592 16.18347,0 29.27338,13.08994 29.27338,29.27339 0,16.18346 -13.08991,29.03471 -29.27338,29.03471 h -6.36804 l -15.57837,10.94769 h 21.94641 c 22.13327,0 40.22107,-18.08735 40.22107,-40.2206 0,-22.13327 -17.84982,-40.2206 -40.22107,-40.2206 h -2.61782 c -9.51968,-14.9935 -26.17928,-24.27546 -44.26667,-24.27546 z" /><path
       id="rect1249-6-3-4-4-3-6-6-1-2-4-3-3"
       style="fill:#5d7285;fill-opacity:1;stroke:none;stroke-width:0.369373;stop-color:#000000"
       d="m 214.25482,-175.73994 -16.73375,37.16433 -7.64647,16.98063 -16.73507,37.164327 77.04792,-54.144957 H 214.0375 l 52.88368,-37.16433 z" /></g></svg>
