<svg width="718" height="106" viewBox="0 0 718 106" fill="none" xmlns="http://www.w3.org/2000/svg">
<path d="M103.52 26.3529L99.6118 40.7363H127.319L122.861 57.1474H95.1544L87.7126 84.5335H70.6602L90.9307 9.94189H136.223L131.765 26.3529H103.526H103.52Z" fill="#EAEAE0"/>
<path d="M192.772 31.256L178.291 84.5388H162.304L163.663 79.5323C159.048 83.5821 153.161 86.0337 146.018 86.0337C132.059 86.0337 123.878 73.7811 128.194 57.9028C132.51 42.0245 147.35 29.772 161.309 29.772C168.447 29.772 173.007 32.2236 175.421 36.2733L176.78 31.2668H192.767L192.772 31.256ZM169.545 57.8919C171.719 49.9012 167.751 44.8892 160.396 44.8892C153.041 44.8892 146.355 49.8957 144.181 57.8919C142.006 65.8827 145.975 70.8946 153.329 70.8946C160.684 70.8946 167.37 65.8882 169.545 57.8919Z" fill="#EAEAE0"/>
<path d="M233.254 68.5517C229.921 80.8042 217.848 86.0281 206.341 86.0281C195.686 86.0281 188.685 81.9784 186.875 73.3461L202.872 65.4586C203.155 69.5084 205.536 71.748 210.222 71.748C214.06 71.748 216.294 70.5738 216.875 68.4429C218.468 62.583 191.414 65.6706 196.42 47.2374C199.578 35.6209 210.972 29.761 222.056 29.761C230.688 29.761 237.32 33.5987 239.739 41.1655L224.1 48.5203C223.36 45.748 221.751 43.8346 218.234 43.8346C215.462 43.8346 213.467 44.9 212.951 46.8189C211.298 52.8908 238.614 48.8465 233.259 68.5571L233.254 68.5517Z" fill="#EAEAE0"/>
<path d="M263.939 46.5962L258.813 65.4588C257.568 70.0413 261.395 70.4653 268.543 70.0413L264.602 84.5334C243.136 86.6643 238.771 80.3749 242.826 65.4588L247.952 46.5962H239.429L243.598 31.2506H252.122L254.872 21.1289L272.158 16.3345L268.103 31.2506H279.078L274.909 46.5962H263.934H263.939Z" fill="#EAEAE0"/>
<path d="M320.223 72.8134H292.516L285.601 84.5332H266.951L312.58 9.94165H334.318L339.411 84.5332H320.761L320.217 72.8134H320.223ZM319.451 56.8264L318.157 29.4403L301.974 56.8264H319.451Z" fill="#EAEAE0"/>
<path d="M409.388 35.5176C405.539 49.689 391.036 61.0936 376.327 61.0936H365.14L358.769 84.5387H341.716L361.987 9.94165H390.226C404.931 9.94165 413.237 21.3462 409.388 35.5176ZM392.336 35.5176C393.814 30.0817 391.107 25.9287 385.883 25.9287H374.696L369.483 45.112H380.67C385.894 45.112 390.857 40.959 392.336 35.5231V35.5176Z" fill="#EAEAE0"/>
<path d="M436.741 9.94165L416.471 84.5332H399.418L419.689 9.94165H436.741Z" fill="#EAEAE0"/>
<path fill-rule="evenodd" clip-rule="evenodd" d="M515.713 84.2724L535.304 10.344H541.991L522.4 84.2724H515.713ZM475.895 85.4846C465.159 85.4846 457.223 81.9404 452.081 74.852C446.938 67.7635 445.726 59.0878 448.444 48.8248C451.162 38.5618 456.973 29.8861 465.871 22.7977C474.77 15.7093 484.587 12.165 495.323 12.165C501.873 12.165 507.467 13.736 512.104 16.8725C516.741 20.0145 519.839 24.2491 521.394 29.5817L514.148 33.2292C513.066 28.9076 510.669 25.4667 506.961 22.901C503.249 20.3352 498.764 19.0523 493.497 19.0523C484.653 19.0523 476.667 21.9225 469.546 27.6574C462.42 33.3977 457.75 40.4535 455.532 48.8248C453.314 57.1961 454.244 64.2519 458.332 69.9923C462.414 75.7326 468.878 78.6028 477.722 78.6028C482.989 78.6028 488.153 77.3199 493.225 74.7541C498.291 72.1884 502.515 68.7474 505.885 64.4259L511.223 67.9701C506.907 73.3027 501.574 77.5591 495.231 80.7282C488.887 83.9028 482.44 85.4901 475.89 85.4901L475.895 85.4846ZM558.026 85.4901C565.452 85.4901 572.421 82.9406 578.938 77.8417C585.456 72.7428 589.707 66.4481 591.691 58.9519C593.681 51.4558 592.767 45.161 588.951 40.0621C585.135 34.9633 579.515 32.4138 572.089 32.4138C564.664 32.4138 557.695 34.9633 551.177 40.0621C544.66 45.161 540.409 51.4558 538.425 58.9519C536.435 66.4481 537.348 72.7428 541.164 77.8417C544.98 82.9406 550.601 85.4901 558.026 85.4901ZM559.744 79.005C554.134 79.005 549.927 77.0644 547.106 73.1832C544.29 69.3019 543.621 64.5564 545.105 58.9519C546.595 53.353 549.775 48.6074 554.651 44.7262C559.527 40.8449 564.772 38.9043 570.371 38.9043C575.97 38.9043 580.183 40.8449 583.005 44.7262C585.82 48.6074 586.489 53.3475 585.005 58.9519C583.521 64.5618 580.341 69.3019 575.465 73.1832C570.589 77.0644 565.354 79.005 559.744 79.005ZM643.365 33.6316H650.051L636.635 84.2671H629.949L632.042 76.3687C626.649 82.4461 620.175 85.4847 612.614 85.4847C606.471 85.4847 602.122 83.6094 599.573 79.864C597.018 76.1187 596.583 71.0687 598.268 64.725L606.509 33.6316H613.195L604.954 64.725C603.753 69.2477 604.025 72.7593 605.759 75.2598C607.493 77.7603 610.553 79.0051 614.946 79.0051C619.805 79.0051 624.165 77.4722 628.014 74.3955C631.868 71.3242 634.64 66.5841 636.341 60.1697L643.375 33.637L643.365 33.6316ZM718.005 13.3773H711.319V13.3718L703.323 43.552C700.632 36.1266 694.799 32.4138 685.819 32.4138C678.595 32.4138 671.757 34.9796 665.299 40.1111C658.841 45.2426 654.628 51.5211 652.66 58.9465C650.692 66.372 651.573 72.6505 655.313 77.782C659.053 82.9135 664.532 85.4792 671.757 85.4792C680.731 85.4792 688.537 81.7665 695.164 74.341L692.533 84.267H699.219L718.005 13.3773ZM673.974 79.005C668.37 79.005 664.163 77.0644 661.341 73.1832C658.526 69.3019 657.857 64.5564 659.341 58.952C660.83 53.353 664.01 48.6074 668.886 44.7262C673.762 40.8449 679.008 38.9043 684.607 38.9043C690.206 38.9043 694.419 40.8449 697.24 44.7262C700.056 48.6074 700.725 53.3475 699.241 58.952C697.751 64.5618 694.571 69.3019 689.695 73.1832C684.819 77.0644 679.579 79.005 673.974 79.005Z" fill="url(#paint0_linear_2001_2)"/>
<path d="M22.4469 94.0472L22.626 99.7396L25.2742 94.6975L54.8252 38.433L55.9794 36.2356H53.4973H39.6512L60.2659 3.80467L61.7309 1.5H59H17.9183H16.7719L16.4709 2.60618L2.55262 53.7585L2.03732 55.6523H4H21.2393L22.4469 94.0472Z" fill="url(#paint1_linear_2001_2)" stroke="url(#paint2_linear_2001_2)" stroke-width="3"/>
<defs>
<linearGradient id="paint0_linear_2001_2" x1="582.52" y1="10.344" x2="582.52" y2="85.4901" gradientUnits="userSpaceOnUse">
<stop stop-color="#EAEAE0"/>
<stop offset="1" stop-color="#84847E"/>
</linearGradient>
<linearGradient id="paint1_linear_2001_2" x1="31.5" y1="3" x2="31.5" y2="94" gradientUnits="userSpaceOnUse">
<stop stop-color="#EAEAE0"/>
<stop offset="1" stop-color="#757568"/>
</linearGradient>
<linearGradient id="paint2_linear_2001_2" x1="31.5" y1="3" x2="31.5" y2="94" gradientUnits="userSpaceOnUse">
<stop stop-color="white"/>
<stop offset="0.337838" stop-color="#5E5E3E"/>
<stop offset="1" stop-color="#868679" stop-opacity="0"/>
</linearGradient>
</defs>
</svg>
