<?xml version="1.0" encoding="UTF-8" standalone="no"?>
<svg
   width="690.69031mm"
   height="171.62772mm"
   viewBox="0 0 690.69029 171.6277"
   version="1.1"
   id="svg8"
   sodipodi:docname="logo-line-icon-gradient-text-solid.svg"
   inkscape:version="1.3.2 (091e20e, 2023-11-25)"
   xml:space="preserve"
   xmlns:inkscape="http://www.inkscape.org/namespaces/inkscape"
   xmlns:sodipodi="http://sodipodi.sourceforge.net/DTD/sodipodi-0.dtd"
   xmlns:xlink="http://www.w3.org/1999/xlink"
   xmlns="http://www.w3.org/2000/svg"
   xmlns:svg="http://www.w3.org/2000/svg"
   xmlns:rdf="http://www.w3.org/1999/02/22-rdf-syntax-ns#"
   xmlns:cc="http://creativecommons.org/ns#"
   xmlns:dc="http://purl.org/dc/elements/1.1/"><sodipodi:namedview
     pagecolor="#ffffff"
     bordercolor="#666666"
     borderopacity="1"
     objecttolerance="10"
     gridtolerance="10"
     guidetolerance="10"
     inkscape:pageopacity="0"
     inkscape:pageshadow="2"
     inkscape:window-width="1720"
     inkscape:window-height="1403"
     id="namedview10"
     showgrid="false"
     inkscape:zoom="0.33970698"
     inkscape:cx="1355.58"
     inkscape:cy="493.072"
     inkscape:window-x="0"
     inkscape:window-y="0"
     inkscape:window-maximized="0"
     inkscape:current-layer="svg8"
     inkscape:showpageshadow="2"
     inkscape:pagecheckerboard="0"
     inkscape:deskcolor="#d1d1d1"
     inkscape:document-units="mm" /><defs
     id="defs2"><linearGradient
       id="linearGradient10"
       inkscape:collect="always"><stop
         style="stop-color:#0599b3;stop-opacity:1;"
         offset="0"
         id="stop10" /><stop
         style="stop-color:#004681;stop-opacity:1;"
         offset="1"
         id="stop11" /></linearGradient><linearGradient
       id="linearGradient8"
       inkscape:collect="always"><stop
         style="stop-color:#252d32;stop-opacity:1;"
         offset="0"
         id="stop8" /><stop
         style="stop-color:#004681;stop-opacity:1;"
         offset="1"
         id="stop9" /></linearGradient><linearGradient
       id="linearGradient6"
       inkscape:collect="always"><stop
         style="stop-color:#0599b3;stop-opacity:1;"
         offset="0"
         id="stop6" /><stop
         style="stop-color:#004681;stop-opacity:1;"
         offset="1"
         id="stop7" /></linearGradient><linearGradient
       id="SvgjsLinearGradient1013"><stop
         id="SvgjsStop1014"
         stop-color="#2d388a"
         offset="0"
         style="stop-color:#0c0078;stop-opacity:1;" /><stop
         id="SvgjsStop1015"
         stop-color="#00aeef"
         offset="1"
         style="stop-color:#009485;stop-opacity:1;" /></linearGradient><linearGradient
       inkscape:collect="always"
       xlink:href="#linearGradient6"
       id="linearGradient7"
       x1="-202.45528"
       y1="-667.56127"
       x2="-3.9040925"
       y2="-667.56127"
       gradientUnits="userSpaceOnUse" /><linearGradient
       inkscape:collect="always"
       xlink:href="#linearGradient8"
       id="linearGradient9"
       x1="212.35742"
       y1="3.6100342"
       x2="212.35742"
       y2="60.446903"
       gradientUnits="userSpaceOnUse" /><linearGradient
       inkscape:collect="always"
       xlink:href="#linearGradient10"
       id="linearGradient11"
       x1="211.56032"
       y1="-2.4483137"
       x2="212.35742"
       y2="59.410606"
       gradientUnits="userSpaceOnUse" /><linearGradient
       inkscape:collect="always"
       xlink:href="#linearGradient6"
       id="linearGradient1"
       gradientUnits="userSpaceOnUse"
       x1="-99.146339"
       y1="-760.39734"
       x2="-103.1797"
       y2="-574.72516" /></defs><metadata
     id="metadata5"><rdf:RDF><cc:Work
         rdf:about=""><dc:format>image/svg+xml</dc:format><dc:type
           rdf:resource="http://purl.org/dc/dcmitype/StillImage" /></cc:Work></rdf:RDF></metadata><rect
     style="fill:none;stroke-width:0.335971"
     id="rect1"
     width="690.69031"
     height="171.62772"
     x="3.5527137e-15"
     y="0" /><text
     id="text979-3"
     y="59.410606"
     x="212.35765"
     style="font-style:normal;font-variant:normal;font-weight:normal;font-stretch:normal;font-size:79.7151px;line-height:1;font-family:Ubuntu;-inkscape-font-specification:Ubuntu;text-align:center;letter-spacing:0px;word-spacing:0px;text-anchor:middle;white-space:pre;inline-size:841.989;display:inline;fill:#252d32;fill-opacity:1;stroke:none;stroke-width:1.99288"
     xml:space="preserve"
     transform="translate(-38.711761,56.668698)"><tspan
       x="212.35765"
       y="59.410606"
       id="tspan2"><tspan
         style="font-weight:500;-inkscape-font-specification:'Ubuntu Medium'"
         id="tspan1">FastAPI</tspan></tspan></text><text
     id="text979-3-1"
     y="59.410606"
     x="212.35765"
     style="font-style:normal;font-variant:normal;font-weight:normal;font-stretch:normal;font-size:79.7151px;line-height:1;font-family:Ubuntu;-inkscape-font-specification:Ubuntu;text-align:center;letter-spacing:0px;word-spacing:0px;text-anchor:middle;white-space:pre;inline-size:841.989;display:inline;fill:#252d32;fill-opacity:1;stroke:none;stroke-width:1.99288"
     xml:space="preserve"
     transform="translate(336.17454,56.668698)"><tspan
       x="212.35765"
       y="59.410606"
       id="tspan4"><tspan
   style="font-weight:500;-inkscape-font-specification:'Ubuntu Medium'"
   id="tspan3">Cloud</tspan>
</tspan></text><g
     id="g4"
     transform="matrix(0.49201903,0,0,0.49201903,426.80172,414.20056)"
     style="fill:url(#linearGradient7);fill-opacity:1"><g
       id="g1"
       style="fill:url(#linearGradient1)"><path
         id="path1-7-9-8"
         style="fill:url(#linearGradient1);stroke-width:2.60224;fill-opacity:1"
         d="m -99.146343,-760.39736 c -14.832727,0 -28.884737,5.72497 -39.814097,16.1339 -8.58739,8.06693 -14.05235,18.47599 -16.39435,29.92582 -3.64313,-1.30112 -7.54632,-2.08153 -11.70988,-2.08153 -19.51675,0 -35.39061,15.87334 -35.39061,35.39009 0,19.51675 15.87386,35.39061 35.39061,35.39061 h 31.41772 l 5.50716,-12.23078 h -36.92488 c -12.75095,0 -23.15983,-10.40888 -23.15983,-23.15983 0,-12.75095 10.40888,-23.15983 23.15983,-23.15983 4.68401,0 9.36818,1.30112 13.27154,4.16357 1.82156,1.30112 4.16331,1.56127 6.2451,0.52039 2.08177,-1.04089 3.38325,-2.86233 3.38325,-5.20434 0.52045,-11.71006 5.46477,-22.63973 13.79192,-30.70665 8.32716,-8.06692 19.51646,-12.49071 31.226517,-12.49071 16.65431,0 31.74719,9.10823 39.81411,23.68072 1.30112,2.34202 3.90361,3.64274 6.24561,3.12229 1.82156,-0.26022 3.38278,-0.52038 5.20434,-0.52038 17.69519,0 32.00786,14.31269 32.00786,32.00787 0,17.69519 -14.31267,31.7469 -32.00786,31.7469 h -6.96289 l -17.03358,11.97033 h 23.99647 c 24.20077,0 43.9781905,-19.77692 43.9781905,-43.97768 0,-24.20078 -19.5172005,-43.97768 -43.9781905,-43.97768 h -2.86236 c -10.40893,-16.39407 -28.62473,-26.54308 -48.4017,-26.54308 z" /><path
         id="rect1249-6-3-4-4-3-6-6-1-2-4-3"
         style="fill:url(#linearGradient1);fill-opacity:1;stroke:none;stroke-width:0.403877;stop-color:#000000"
         d="m -109.49475,-674.56384 -18.29687,40.63592 -8.36075,18.56682 -18.29832,40.63592 84.245107,-59.20274 h -39.526787 l 57.823647,-40.63592 z" /></g></g></svg>
