<?xml version="1.0" encoding="UTF-8" standalone="no"?>
<svg
   width="610.28455mm"
   height="91.354248mm"
   viewBox="0 0 610.28453 91.354239"
   version="1.1"
   id="svg8"
   xml:space="preserve"
   xmlns:xlink="http://www.w3.org/1999/xlink"
   xmlns="http://www.w3.org/2000/svg"
   xmlns:svg="http://www.w3.org/2000/svg"
   xmlns:rdf="http://www.w3.org/1999/02/22-rdf-syntax-ns#"
   xmlns:cc="http://creativecommons.org/ns#"
   xmlns:dc="http://purl.org/dc/elements/1.1/"><defs
     id="defs2"><linearGradient
       id="linearGradient10"><stop
         style="stop-color:#0599b3;stop-opacity:1;"
         offset="0"
         id="stop10" /><stop
         style="stop-color:#004681;stop-opacity:1;"
         offset="1"
         id="stop11" /></linearGradient><linearGradient
       id="linearGradient8"><stop
         style="stop-color:#0599b3;stop-opacity:1;"
         offset="0"
         id="stop8" /><stop
         style="stop-color:#004681;stop-opacity:1;"
         offset="1"
         id="stop9" /></linearGradient><linearGradient
       id="SvgjsLinearGradient1013"><stop
         id="SvgjsStop1014"
         stop-color="#2d388a"
         offset="0"
         style="stop-color:#0c0078;stop-opacity:1;" /><stop
         id="SvgjsStop1015"
         stop-color="#00aeef"
         offset="1"
         style="stop-color:#009485;stop-opacity:1;" /></linearGradient><linearGradient
       xlink:href="#linearGradient8"
       id="linearGradient9"
       x1="212.35742"
       y1="3.6100342"
       x2="212.35742"
       y2="60.446903"
       gradientUnits="userSpaceOnUse" /><linearGradient
       xlink:href="#linearGradient10"
       id="linearGradient11"
       x1="211.56032"
       y1="-2.4483137"
       x2="212.35742"
       y2="59.410606"
       gradientUnits="userSpaceOnUse" /></defs><metadata
     id="metadata5"><rdf:RDF><cc:Work
         rdf:about=""><dc:format>image/svg+xml</dc:format><dc:type
           rdf:resource="http://purl.org/dc/dcmitype/StillImage" /></cc:Work></rdf:RDF></metadata><path
     style="font-weight:500;font-size:79.7151px;line-height:1;font-family:Ubuntu;-inkscape-font-specification:'Ubuntu Medium';text-align:center;letter-spacing:0px;word-spacing:0px;text-anchor:middle;white-space:pre;inline-size:841.989;fill:#ffffff;stroke-width:1.99288"
     d="M 78.914646,59.410606 V 4.1680399 H 113.82986 V 12.697556 H 88.958749 v 14.109573 h 22.081081 v 8.529516 H 88.958749 v 24.073961 z m 54.525024,-6.775783 q 4.46404,0 6.77578,-0.478291 V 41.474708 q -0.79715,-0.239145 -2.31174,-0.47829 -1.51459,-0.239146 -3.34803,-0.239146 -1.59431,0 -3.26832,0.239146 -1.5943,0.239145 -2.94946,0.876866 -1.27544,0.637721 -2.07259,1.833447 -0.79715,1.116012 -0.79715,2.869744 0,3.427749 2.1523,4.782906 2.15231,1.275442 5.81921,1.275442 z m -0.79716,-35.951512 q 4.78291,0 8.05123,1.195727 3.26832,1.195726 5.18148,3.348034 1.99288,2.152308 2.79003,5.261197 0.87687,3.029174 0.87687,6.696068 v 25.269688 q -2.23203,0.478291 -6.77579,1.116012 -4.46404,0.717436 -10.12382,0.717436 -3.74661,0 -6.85549,-0.717436 -3.10889,-0.717436 -5.34092,-2.311738 -2.1523,-1.594302 -3.42775,-4.145186 -1.19572,-2.550883 -1.19572,-6.297493 0,-3.58718 1.35515,-6.058348 1.43488,-2.471168 3.82633,-3.985755 2.39145,-1.594302 5.50034,-2.232023 3.18861,-0.717436 6.61636,-0.717436 1.5943,0 3.34803,0.239146 1.75373,0.15943 3.74661,0.63772 v -1.594302 q 0,-1.674017 -0.39858,-3.188604 -0.39857,-1.514587 -1.43487,-2.630598 -0.95658,-1.195727 -2.6306,-1.833448 -1.5943,-0.63772 -4.06547,-0.63772 -3.34803,0 -6.13806,0.47829 -2.79003,0.478291 -4.54376,1.116012 l -1.19573,-7.81208 q 1.83345,-0.637721 5.34091,-1.275442 3.50747,-0.637721 7.49322,-0.637721 z m 39.14,35.792081 q 3.82632,0 5.58005,-0.876866 1.75374,-0.956581 1.75374,-3.188604 0,-2.072593 -1.91317,-3.427749 -1.83344,-1.355157 -6.13806,-2.949459 -2.6306,-0.956581 -4.86262,-1.992878 -2.15231,-1.116011 -3.74661,-2.550883 -1.5943,-1.434872 -2.55088,-3.427749 -0.87687,-2.072593 -0.87687,-5.022052 0,-5.739487 4.2249,-9.007807 4.2249,-3.348034 11.47898,-3.348034 3.66689,0 7.01492,0.717436 3.34804,0.637721 5.02206,1.275442 l -1.75374,7.81208 q -1.5943,-0.717436 -4.06547,-1.275442 -2.47116,-0.637721 -5.73948,-0.637721 -2.94946,0 -4.78291,1.036297 -1.83345,0.956581 -1.83345,3.029174 0,1.036296 0.31886,1.833447 0.39858,0.797151 1.27544,1.514587 0.87687,0.637721 2.31174,1.355157 1.43487,0.63772 3.50747,1.355156 3.42775,1.275442 5.8192,2.550884 2.39145,1.195726 3.90604,2.790028 1.5943,1.514587 2.31174,3.507465 0.71743,1.992877 0.71743,4.782906 0,5.978633 -4.46404,9.087522 -4.38433,3.029174 -12.59499,3.029174 -5.50034,0 -8.84838,-0.956582 -3.34803,-0.876866 -4.70319,-1.434871 l 1.67402,-8.051226 q 2.15231,0.876866 5.10177,1.674017 3.02917,0.797151 6.8555,0.797151 z M 197.29125,6.7189232 206.93678,5.1246211 V 17.719607 h 14.827 v 8.051226 h -14.827 V 42.75015 q 0,5.022051 1.5943,7.174359 1.5943,2.152308 5.42062,2.152308 2.6306,0 4.62348,-0.558006 2.07259,-0.558006 3.26832,-1.036296 l 1.5943,7.65265 q -1.67402,0.717436 -4.38433,1.434872 -2.71031,0.797151 -6.37721,0.797151 -4.46404,0 -7.49322,-1.195727 -2.94946,-1.195726 -4.70319,-3.427749 -1.75373,-2.311738 -2.47117,-5.500342 -0.71743,-3.26832 -0.71743,-7.413505 z m 70.94638,52.6916828 q -1.11601,-3.268319 -2.31174,-6.456923 -1.19572,-3.188604 -2.31174,-6.536638 h -23.27681 q -1.11601,3.348034 -2.31173,6.616353 -1.11601,3.188604 -2.23203,6.377208 h -10.44267 q 3.10888,-8.848376 5.89891,-16.341596 2.79003,-7.493219 5.42063,-14.189288 2.71031,-6.696069 5.34091,-12.754417 2.6306,-6.058347 5.42063,-11.9572651 h 9.4861 q 2.79002,5.8989181 5.42062,11.9572651 2.6306,6.058348 5.2612,12.754417 2.71031,6.696069 5.50034,14.189288 2.86975,7.49322 5.97863,16.341596 z M 251.97575,14.849864 q -1.83345,4.2249 -4.2249,10.283248 -2.31174,6.058348 -4.86262,13.152992 h 18.17504 q -2.55088,-7.094644 -4.94234,-13.232707 -2.39145,-6.138063 -4.14518,-10.203533 z M 301.71782,3.6100342 q 12.03698,0 18.41419,4.3843307 6.45692,4.3843311 6.45692,13.7109981 0,4.862621 -1.75373,8.370085 -1.67402,3.42775 -4.94233,5.659773 -3.26832,2.152308 -7.97151,3.188604 -4.7032,1.036296 -10.76154,1.036296 h -5.02206 v 19.450485 h -10.0441 V 4.9651909 q 3.50747,-0.797151 7.73237,-1.0362963 4.30461,-0.3188604 7.89179,-0.3188604 z m 0.71744,8.6889458 q -3.82633,0 -6.2975,0.239146 V 31.35089 h 4.86263 q 7.25407,0 11.16011,-1.992878 3.90604,-2.072592 3.90604,-7.732365 0,-2.710313 -1.0363,-4.54376 -1.03629,-1.833448 -2.86974,-2.869744 -1.83345,-1.036296 -4.38433,-1.434872 -2.47117,-0.478291 -5.34091,-0.478291 z m 33.32085,-8.1309401 h 10.0441 V 59.410606 h -10.0441 z"
     id="text979-3"
     transform="translate(-78.914646,16.598109)"
     aria-label="FastAPI" /><path
     style="font-weight:500;font-size:79.7151px;line-height:1;font-family:Ubuntu;-inkscape-font-specification:'Ubuntu Medium';text-align:center;letter-spacing:0px;word-spacing:0px;text-anchor:middle;white-space:pre;inline-size:841.989;fill:#ffffff;stroke-width:1.99288"
     d="m 135.43258,60.606333 q -6.21778,0 -11.16011,-1.913163 -4.94234,-1.913162 -8.37009,-5.580057 -3.42775,-3.74661 -5.2612,-9.087522 -1.83344,-5.340911 -1.83344,-12.276125 0,-6.935214 2.07259,-12.276126 2.15231,-5.340912 5.8192,-9.007807 3.6669,-3.7466098 8.60923,-5.6597723 4.94234,-1.9131624 10.60211,-1.9131624 3.42775,0 6.21778,0.5580057 2.79003,0.4782906 4.86262,1.1160114 2.07259,0.6377208 3.42775,1.3551568 1.35516,0.7174359 1.91316,1.0362963 l -2.94946,8.2106555 q -1.91316,-1.195726 -5.50034,-2.232023 -3.50746,-1.116011 -7.65265,-1.116011 -3.58718,0 -6.69607,1.275441 -3.10889,1.195727 -5.42062,3.666895 -2.23203,2.471168 -3.50747,6.217778 -1.27544,3.74661 -1.27544,8.688946 0,4.384331 0.95658,8.051226 1.0363,3.666895 3.10889,6.377208 2.07259,2.630599 5.2612,4.145186 3.1886,1.434871 7.65265,1.434871 5.34091,0 8.68894,-1.036296 3.34804,-1.116011 5.18148,-2.072593 l 2.71032,8.210656 q -0.95658,0.637721 -2.6306,1.275442 -1.5943,0.63772 -3.82633,1.275441 -2.23202,0.558006 -5.02205,0.876866 -2.79003,0.398576 -5.97863,0.398576 z m 40.33573,-0.398576 q -4.30462,-0.07972 -7.17436,-0.956581 -2.79003,-0.876866 -4.46405,-2.471168 -1.67401,-1.674017 -2.39145,-4.06547 -0.63772,-2.471168 -0.63772,-5.580058 V -0.8540116 l 9.64553,-1.5943021 V 45.301033 q 0,1.753732 0.23914,2.949459 0.31886,1.195726 1.0363,2.072593 0.71744,0.797151 1.91316,1.275441 1.27544,0.398576 3.18861,0.637721 z m 46.8724,-21.682508 q 0,4.942337 -1.43487,9.007807 -1.43487,4.06547 -4.06547,6.935214 -2.6306,2.869744 -6.37721,4.464046 -3.66689,1.594302 -8.13094,1.594302 -4.46404,0 -8.13094,-1.594302 -3.66689,-1.594302 -6.29749,-4.464046 -2.6306,-2.869744 -4.14519,-6.935214 -1.43487,-4.06547 -1.43487,-9.007807 0,-4.942336 1.43487,-8.928091 1.51459,-4.06547 4.14519,-6.935214 2.71031,-2.869744 6.37721,-4.384331 3.66689,-1.594302 8.05122,-1.594302 4.38433,0 8.05123,1.594302 3.74661,1.514587 6.37721,4.384331 2.63059,2.869744 4.06547,6.935214 1.51458,3.985755 1.51458,8.928091 z m -9.88467,0 q 0,-6.217778 -2.71031,-9.804957 -2.6306,-3.666895 -7.41351,-3.666895 -4.7829,0 -7.49322,3.666895 -2.6306,3.587179 -2.6306,9.804957 0,6.297494 2.6306,9.964388 2.71032,3.666895 7.49322,3.666895 4.78291,0 7.41351,-3.666895 2.71031,-3.666894 2.71031,-9.964388 z m 54.0468,19.609916 q -2.79003,0.717436 -7.25407,1.434872 -4.46405,0.797151 -9.80496,0.797151 -5.02205,0 -8.4498,-1.434872 -3.34804,-1.434872 -5.42063,-3.985755 -1.99288,-2.550884 -2.86974,-6.058348 -0.87687,-3.58718 -0.87687,-7.81208 V 17.719607 h 9.64553 v 21.841939 q 0,6.696068 1.91316,9.565812 1.99288,2.869744 6.8555,2.869744 1.75373,0 3.6669,-0.15943 1.99287,-0.159431 2.94945,-0.398576 V 17.719607 h 9.64553 z m 19.84892,-19.689631 q 0,6.377209 3.02917,10.044103 3.02918,3.58718 8.37009,3.58718 2.31174,0 3.90604,-0.15943 1.67402,-0.239146 2.71031,-0.478291 V 27.524565 q -1.27544,-0.876866 -3.42775,-1.594302 -2.07259,-0.797151 -4.46404,-0.797151 -5.2612,0 -7.73237,3.58718 -2.39145,3.587179 -2.39145,9.725242 z m 27.66114,19.689631 q -2.86974,0.876866 -7.25407,1.594302 -4.30462,0.717436 -9.08752,0.717436 -4.94234,0 -8.84838,-1.514587 -3.90604,-1.514587 -6.69607,-4.304616 -2.71031,-2.869744 -4.2249,-6.855499 -1.43487,-4.06547 -1.43487,-9.087521 0,-4.942337 1.19572,-8.928092 1.27545,-4.06547 3.6669,-6.935214 2.39145,-2.869744 5.8192,-4.384331 3.42775,-1.594302 7.8918,-1.594302 3.02917,0 5.34091,0.717436 2.31174,0.717436 3.98575,1.594302 V -0.8540116 l 9.64553,-1.5943021 z"
     id="text979-3-1"
     transform="translate(295.97166,16.598109)"
     aria-label="Cloud&#10;" /><g
     id="g4"
     transform="matrix(0.49201903,0,0,0.49201903,386.59884,374.12997)"
     style="fill:#ffffff;fill-opacity:1"><g
       id="g1"
       style="fill:#ffffff"><path
         id="path1-7-9-8"
         style="fill:#ffffff;fill-opacity:1;stroke-width:2.60224"
         d="m -99.146343,-760.39736 c -14.832727,0 -28.884737,5.72497 -39.814097,16.1339 -8.58739,8.06693 -14.05235,18.47599 -16.39435,29.92582 -3.64313,-1.30112 -7.54632,-2.08153 -11.70988,-2.08153 -19.51675,0 -35.39061,15.87334 -35.39061,35.39009 0,19.51675 15.87386,35.39061 35.39061,35.39061 h 31.41772 l 5.50716,-12.23078 h -36.92488 c -12.75095,0 -23.15983,-10.40888 -23.15983,-23.15983 0,-12.75095 10.40888,-23.15983 23.15983,-23.15983 4.68401,0 9.36818,1.30112 13.27154,4.16357 1.82156,1.30112 4.16331,1.56127 6.2451,0.52039 2.08177,-1.04089 3.38325,-2.86233 3.38325,-5.20434 0.52045,-11.71006 5.46477,-22.63973 13.79192,-30.70665 8.32716,-8.06692 19.51646,-12.49071 31.226517,-12.49071 16.65431,0 31.74719,9.10823 39.81411,23.68072 1.30112,2.34202 3.90361,3.64274 6.24561,3.12229 1.82156,-0.26022 3.38278,-0.52038 5.20434,-0.52038 17.69519,0 32.00786,14.31269 32.00786,32.00787 0,17.69519 -14.31267,31.7469 -32.00786,31.7469 h -6.96289 l -17.03358,11.97033 h 23.99647 c 24.20077,0 43.9781905,-19.77692 43.9781905,-43.97768 0,-24.20078 -19.5172005,-43.97768 -43.9781905,-43.97768 h -2.86236 c -10.40893,-16.39407 -28.62473,-26.54308 -48.4017,-26.54308 z" /><path
         id="rect1249-6-3-4-4-3-6-6-1-2-4-3"
         style="fill:#ffffff;fill-opacity:1;stroke:none;stroke-width:0.403877;stop-color:#000000"
         d="m -109.49475,-674.56384 -18.29687,40.63592 -8.36075,18.56682 -18.29832,40.63592 84.245107,-59.20274 h -39.526787 l 57.823647,-40.63592 z" /></g></g></svg>
